<?xml version="1.0" standalone="no"?>
<!DOCTYPE svg PUBLIC "-//W3C//DTD SVG 20010904//EN"
 "http://www.w3.org/TR/2001/REC-SVG-20010904/DTD/svg10.dtd">
<svg version="1.0" xmlns="http://www.w3.org/2000/svg"
 width="395.000000pt" height="395.000000pt" viewBox="0 0 395.000000 395.000000"
 preserveAspectRatio="xMidYMid meet">
<metadata>
Created by potrace 1.14, written by Peter Selinger 2001-2017
</metadata>
<g transform="translate(0.000000,395.000000) scale(0.100000,-0.100000)"
fill="#000000" stroke="none">
<path d="M1805 3939 c-358 -31 -712 -165 -1003 -379 -104 -77 -281 -246 -365
-350 -190 -235 -329 -531 -392 -836 -113 -547 13 -1120 345 -1572 77 -104 246
-281 350 -365 235 -190 531 -329 836 -392 547 -113 1120 13 1572 345 104 77
281 246 365 350 190 235 329 531 392 836 113 547 -13 1120 -345 1572 -77 104
-246 281 -350 365 -387 313 -906 470 -1405 426z m490 -93 c841 -155 1463 -813
1565 -1656 15 -122 12 -321 -5 -457 -71 -543 -373 -1030 -830 -1335 -98 -66
-244 -142 -361 -189 -92 -36 -285 -91 -293 -83 -3 3 -6 110 -7 238 0 128 -3
237 -7 243 -4 6 4 20 17 30 l25 18 -9 185 c-13 261 -13 287 4 287 11 0 12 -6
4 -28 -10 -29 3 -143 22 -193 13 -36 21 -33 10 4 -13 44 -1 98 22 106 10 3 35
-2 55 -11 19 -10 41 -18 49 -19 15 -2 54 -35 52 -45 0 -3 0 -17 1 -31 2 -24 3
-24 11 -4 16 41 27 208 17 284 -5 41 -10 109 -11 150 -1 41 -8 88 -14 103 -9
20 -9 32 -1 45 9 14 5 34 -19 93 -23 57 -31 99 -37 175 -3 54 -15 135 -25 179
-10 44 -26 132 -36 195 -10 63 -24 123 -32 132 -8 10 -40 27 -71 39 -31 11
-60 24 -66 28 -5 5 -36 18 -69 30 -63 23 -122 66 -143 103 -10 19 -12 20 -13
5 0 -10 5 -27 10 -38 12 -22 -20 -153 -84 -351 -43 -135 -49 -144 -57 -93 l-6
40 -2 -50 c-1 -32 -8 -59 -21 -75 -26 -33 -26 -30 -15 143 4 53 11 95 15 92 5
-3 4 11 -2 31 -5 20 -7 45 -5 55 3 11 2 21 -3 24 -14 9 3 60 27 78 19 15 21
22 12 33 -17 21 -73 17 -93 -5 -16 -18 -16 -21 -2 -43 12 -18 13 -32 6 -63 -5
-22 -10 -89 -10 -149 0 -64 -4 -106 -9 -100 -10 10 -68 188 -101 308 -15 55
-21 98 -18 138 2 32 3 58 2 58 -1 0 -18 -22 -38 -50 -40 -56 -66 -72 -156 -95
-36 -9 -69 -20 -75 -24 -5 -5 -32 -16 -58 -26 -55 -21 -60 -28 -77 -107 -6
-32 -16 -60 -21 -63 -5 -4 -9 -31 -9 -62 0 -56 -17 -159 -46 -283 -9 -36 -15
-87 -15 -115 0 -34 -10 -74 -31 -125 -26 -62 -32 -90 -33 -160 -1 -47 -6 -115
-10 -152 -6 -51 -4 -86 9 -138 9 -38 23 -103 32 -142 9 -40 20 -82 25 -93 6
-13 8 -14 5 -2 -3 9 6 41 20 71 19 40 35 58 67 76 23 12 55 35 70 49 28 25 29
26 43 7 16 -23 17 -36 4 -91 -6 -27 -6 -50 2 -70 8 -23 7 -45 -6 -94 -18 -71
-29 -89 -63 -102 -28 -10 -30 -29 -4 -29 39 0 54 -29 46 -89 -7 -66 -7 -304 1
-379 l6 -52 -88 31 c-470 165 -866 522 -1079 972 -75 159 -157 422 -142 460 3
9 30 16 84 21 323 31 330 33 102 35 l-206 1 -7 53 c-4 28 -9 122 -13 208 -9
220 4 306 91 630 28 106 172 403 219 451 7 7 37 47 66 88 74 102 108 140 225
249 154 142 215 186 411 294 157 86 397 165 575 191 63 9 129 18 145 20 62 9
403 -4 480 -18z m23 -1858 c-3 -8 -35 -16 -83 -20 -44 -4 -85 -10 -91 -12 -7
-3 -18 1 -24 9 -9 11 -3 15 32 19 140 19 171 19 166 4z m-73 -203 c0 -35 -31
-47 -51 -20 -18 25 0 57 29 53 17 -2 22 -10 22 -33z m-580 6 c9 -28 -5 -52
-28 -49 -25 4 -42 30 -34 52 9 22 54 21 62 -3z m431 -226 c11 -43 -31 -72 -59
-42 -23 23 -4 67 29 67 17 0 25 -7 30 -25z m-186 0 c18 -21 4 -65 -20 -65 -24
0 -38 44 -20 65 7 8 16 15 20 15 4 0 13 -7 20 -15z m447 -157 c-3 -8 -6 -5 -6
6 -1 11 2 17 5 13 3 -3 4 -12 1 -19z m23 -128 c0 -11 0 -23 1 -27 0 -5 -7 -9
-15 -11 -12 -3 -16 5 -16 27 0 21 5 31 15 31 8 0 15 -9 15 -20z m-912 -17 c-4
-39 -28 -42 -28 -4 0 21 5 31 16 31 11 0 14 -8 12 -27z m442 2 c7 -8 10 -25 6
-40 -8 -31 -50 -35 -66 -6 -13 25 -13 27 6 45 19 20 38 20 54 1z m207 3 c12
-16 11 -28 -4 -53 -21 -36 -65 9 -49 51 7 17 40 19 53 2z m297 -103 c3 -8 1
-15 -4 -15 -6 0 -10 7 -10 15 0 8 2 15 4 15 2 0 6 -7 10 -15z m-450 -1057 c5
-24 2 -28 -18 -28 -33 0 -37 9 -19 43 10 21 12 36 6 46 -5 9 -8 32 -6 51 7 68
16 64 24 -10 5 -41 11 -87 13 -102z"/>
<path d="M1809 3192 c-103 -29 -189 -123 -183 -202 8 -91 16 -126 35 -146 27
-29 58 -21 57 15 -1 33 21 101 32 101 5 0 12 10 16 22 23 74 75 111 154 110
81 -1 156 -72 184 -172 25 -87 39 -79 66 38 13 56 13 55 -51 154 -34 52 -102
76 -158 57 -25 -9 -36 -8 -54 3 -24 16 -75 26 -98 20z"/>
<path d="M1795 2870 c-7 -12 2 -12 30 0 19 8 19 9 -2 9 -12 1 -25 -3 -28 -9z"/>
<path d="M1947 2207 c-3 -8 -1 -20 4 -28 6 -10 9 -7 9 14 0 29 -5 35 -13 14z"/>
<path d="M590 1680 c36 -11 50 -11 50 0 0 6 -17 10 -37 9 -34 -1 -35 -2 -13
-9z"/>
<path d="M1010 1681 c8 -5 35 -5 60 -1 l45 7 -60 1 c-37 1 -54 -2 -45 -7z"/>
<path d="M1292 683 c-15 -3 -22 -10 -18 -19 3 -8 1 -14 -4 -14 -6 0 -10 -4
-10 -10 0 -15 87 -12 93 3 4 10 6 10 6 0 1 -18 28 -16 34 1 4 10 1 13 -9 9 -7
-3 -14 0 -14 7 0 6 -4 9 -9 6 -5 -3 -11 1 -15 9 -5 15 -12 16 -54 8z"/>
</g>
</svg>
