<svg width="50" height="48" viewBox="0 0 50 48" fill="none" xmlns="http://www.w3.org/2000/svg">
<g clip-path="url(#clip0_2_51)">
<path d="M25 3.16667C13.4938 3.16667 4.16667 12.4938 4.16667 24C4.16667 33.2573 10.2094 41.0948 18.5625 43.8083H31.4375C39.7906 41.0948 45.8333 33.2573 45.8333 24C45.8333 12.4938 36.5063 3.16667 25 3.16667Z" fill="#232831"/>
<path opacity="0.05" d="M31.2604 42.7458L31.25 36.7062C31.25 35.7281 31.0208 34.7729 30.5813 33.9073C36.4573 32.7271 39.3167 29.2531 39.3167 23.3062C39.3167 20.9573 38.624 18.8833 37.2583 17.1396C37.3625 16.8094 37.4396 16.4677 37.4875 16.1177C37.6833 14.6917 37.4635 13.7594 37.2865 13.0094L37.2583 12.8885C37.0646 12.0594 36.8323 11.4677 36.8229 11.4427L36.7073 11.149L36.5917 10.8552L36.2771 10.8219L35.9615 10.7885C35.9615 10.7885 35.7542 10.7667 35.4396 10.7667C35.0031 10.7667 34.3563 10.8104 33.7448 11.0177L33.5406 11.0865C32.7698 11.3458 32.0417 11.5917 31.0229 12.2C30.725 12.3781 30.399 12.5812 30.05 12.8083C28.4729 12.4177 26.776 12.2187 25 12.2187C23.2063 12.2187 21.4948 12.4187 19.9073 12.8135C19.5542 12.5844 19.226 12.3792 18.926 12.2C17.9073 11.5917 17.1792 11.3469 16.4083 11.0865L16.2042 11.0177C15.5948 10.8104 14.9469 10.7667 14.5104 10.7667C14.1958 10.7667 13.9885 10.7885 13.9885 10.7885L13.674 10.8219L13.3615 10.8542L13.2448 11.1469L13.1271 11.4417C13.1167 11.4687 12.8844 12.0604 12.6906 12.8906L12.6625 13.0104C12.4854 13.7594 12.2656 14.6927 12.4615 16.1177C12.5115 16.4781 12.5917 16.8312 12.701 17.1708C11.3625 18.9062 10.6844 20.9687 10.6844 23.3062C10.6844 29.2385 13.5469 32.7104 19.4313 33.9C19.2292 34.3042 19.0719 34.7312 18.9604 35.175C18.7552 35.2448 18.5667 35.2917 18.4 35.3177C18.1521 35.3552 17.8927 35.374 17.6302 35.374C16.9156 35.374 16.3542 35.2344 16.1354 35.1042C15.8094 34.9104 15.2271 34.3469 14.6625 33.5229C14.1802 32.8198 13.4281 31.9 12.5875 31.5156C11.8604 31.1833 11.0906 30.9927 10.474 30.9927C10.3302 30.9927 10.1979 31.0031 10.0823 31.0219C9.54376 31.1073 9.09376 31.4031 8.84896 31.8344C8.63751 32.2062 8.60417 32.6396 8.7573 33.0229C8.98542 33.5937 9.64376 34.049 10.1563 34.3302C10.4083 34.4687 10.9531 34.975 11.2708 35.4854C11.5094 35.8687 11.6198 36.1417 11.7729 36.5187C11.8635 36.7427 11.9635 36.9865 12.099 37.2812C12.5885 38.3458 14.1167 39.2854 14.2896 39.3885C15.1292 39.8917 16.5406 40.0531 17.5781 40.1L17.7063 40.1031H17.7073C17.9573 40.1031 18.301 40.0792 18.7531 40.0292V42.751C18.7552 43.3021 18.1938 43.4271 17.451 43.4156L18.0208 43.6073C20.2031 44.3875 22.5469 44.8333 25 44.8333C27.4531 44.8333 29.7969 44.3875 31.9823 43.6083L32.7146 43.3354C31.974 43.3104 31.2667 43.1896 31.2604 42.7458Z" fill="black"/>
<path opacity="0.07" d="M32.0635 43.5802C31.6406 43.6292 30.7292 43.4667 30.7292 42.7521V36.7063C30.7292 35.5667 30.3875 34.4656 29.7542 33.5271C35.9156 32.5302 38.7948 29.2635 38.7948 23.3063C38.7948 20.976 38.0802 18.9375 36.6708 17.2417C36.8135 16.8615 36.9135 16.4604 36.9708 16.0469C37.1531 14.7177 36.9542 13.874 36.7792 13.1292L36.751 13.0083C36.5656 12.2156 36.3469 11.6573 36.3375 11.6344L36.2219 11.3406L35.9062 11.3073C35.9062 11.3073 35.7208 11.2875 35.4385 11.2875C35.0417 11.2875 34.4552 11.326 33.9115 11.5115L33.7073 11.5802C32.9635 11.8313 32.2604 12.0677 31.2896 12.6469C30.9437 12.8531 30.5583 13.0958 30.1427 13.3698C28.5458 12.9521 26.8177 12.7396 25 12.7396C23.1646 12.7396 21.4219 12.9531 19.8135 13.375C19.3937 13.099 19.0062 12.8552 18.6583 12.6469C17.6875 12.0677 16.9844 11.8302 16.2406 11.5802L16.0365 11.5115C15.4937 11.3271 14.9062 11.2875 14.5094 11.2875C14.2271 11.2875 14.0417 11.3073 14.0417 11.3073L13.7271 11.3406L13.6094 11.6354C13.6 11.6583 13.3812 12.2167 13.1958 13.0094L13.1677 13.1302C12.9917 13.875 12.7927 14.7177 12.976 16.0469C13.0344 16.4708 13.1385 16.8813 13.2865 17.2698C11.9042 18.9573 11.2042 20.9854 11.2042 23.3063C11.2042 29.2469 14.0854 32.5125 20.2521 33.5208C19.8406 34.1354 19.5531 34.8281 19.4052 35.5667C19.0615 35.7021 18.75 35.7917 18.4771 35.8333C18.2031 35.875 17.9177 35.8958 17.6292 35.8958C16.9104 35.8958 16.2198 35.7615 15.8687 35.5531C15.4104 35.2813 14.7677 34.601 14.2312 33.8188C13.8667 33.2875 13.1406 32.3427 12.3687 31.9906C11.7073 31.6885 11.0167 31.5146 10.4719 31.5146C10.3573 31.5146 10.2531 31.5229 10.1615 31.5375C9.78021 31.5979 9.46562 31.8 9.29896 32.0938C9.16562 32.3271 9.14375 32.5969 9.2375 32.8313C9.42396 33.2979 10.1146 33.7167 10.4031 33.875C10.7521 34.0667 11.3604 34.65 11.7094 35.2125C11.9708 35.6333 12.0948 35.9385 12.2521 36.324C12.3406 36.5417 12.4375 36.7792 12.5687 37.0656C12.9135 37.8146 13.9781 38.599 14.5531 38.9438C15.3385 39.4146 16.7969 39.5458 17.5969 39.5813L17.7125 39.5833C18.024 39.5833 18.5458 39.5365 19.2698 39.4427V42.7521C19.2698 43.5635 18.2375 43.5958 17.9844 43.5958C17.9521 43.5958 18.5083 43.7875 18.5083 43.7875C20.5531 44.4583 22.7312 44.8333 25 44.8333C27.2687 44.8333 29.4469 44.4583 31.4906 43.7885C31.4906 43.7885 32.0958 43.576 32.0635 43.5802Z" fill="black"/>
<path d="M38.275 23.3063C38.275 20.9 37.4604 18.9042 36.0698 17.3396C36.2208 17.001 36.3781 16.5469 36.4563 15.976C36.6354 14.674 36.424 13.8927 36.2448 13.1281C36.0656 12.3635 35.8542 11.826 35.8542 11.826C35.8542 11.826 34.8938 11.7281 34.0802 12.0052C33.2667 12.2823 32.5667 12.4938 31.5573 13.0958C31.0854 13.3771 30.6104 13.6854 30.2344 13.9354C28.6271 13.4896 26.8594 13.2604 25 13.2604C23.124 13.2604 21.3406 13.4906 19.7219 13.9396C19.3448 13.6885 18.8667 13.3781 18.3917 13.0948C17.3823 12.4927 16.6823 12.2813 15.8688 12.0042C15.0552 11.7271 14.0948 11.825 14.0948 11.825C14.0948 11.825 13.8833 12.3625 13.7042 13.1271C13.525 13.8917 13.3135 14.6729 13.4927 15.975C13.5729 16.5604 13.7354 17.0229 13.8906 17.3635C12.526 18.9188 11.7261 20.9021 11.7261 23.3052C11.7261 29.5375 15.0927 32.3823 21.2271 33.1333C20.5115 33.8896 20.0313 34.8583 19.8698 35.9365C19.4667 36.1135 19.0021 36.2802 18.5552 36.3469C17.4052 36.5208 16.1896 36.3469 15.6042 36C15.0188 35.6531 14.324 34.8719 13.8031 34.1115C13.3636 33.4698 12.7292 32.725 12.1542 32.4625C11.3948 32.1156 10.6563 31.9854 10.2448 32.05C9.8323 32.1156 9.63751 32.4188 9.72397 32.6365C9.81043 32.8531 10.2229 33.1792 10.6573 33.4177C11.0917 33.6563 11.7646 34.3073 12.1552 34.9365C12.5906 35.6385 12.676 36.0438 13.0448 36.8458C13.3042 37.4104 14.1917 38.1156 14.824 38.4948C15.3667 38.8208 16.4511 39.0063 17.624 39.0594C18.0292 39.0781 18.9865 38.9594 19.7938 38.8448V42.751C19.7938 43.4167 19.1844 43.9229 18.5531 43.8063C20.5792 44.4875 22.7427 44.8333 25 44.8333C27.2563 44.8333 29.4198 44.4875 31.4479 43.8083C30.8177 43.924 30.2083 43.4177 30.2083 42.7521V36.7063C30.2083 35.3219 29.6594 34.0708 28.7781 33.1385C34.8677 32.4073 38.275 29.6302 38.275 23.3063ZM11.7073 33.0906C11.5469 33.0083 11.4604 32.8563 11.5146 32.749C11.5688 32.6417 11.7438 32.6219 11.9042 32.7042C12.0646 32.7865 12.151 32.9385 12.0969 33.0458C12.0427 33.1531 11.8677 33.1729 11.7073 33.0906ZM12.9698 33.8771C12.8854 33.9688 12.7042 33.9396 12.5646 33.8125C12.425 33.6854 12.3802 33.5073 12.4646 33.4156C12.549 33.324 12.7302 33.3531 12.8698 33.4802C13.0094 33.6073 13.0542 33.7854 12.9698 33.8771ZM13.7552 35.1792C13.649 35.2542 13.4688 35.1844 13.3531 35.0229C13.2375 34.8615 13.2302 34.6688 13.3365 34.5938C13.4427 34.5187 13.6229 34.5885 13.7386 34.75C13.8531 34.9115 13.8615 35.1042 13.7552 35.1792ZM14.8833 36.1594C14.8115 36.276 14.6073 36.2813 14.4281 36.1719C14.249 36.0625 14.1615 35.8792 14.2333 35.7625C14.3052 35.6458 14.5094 35.6406 14.6885 35.75C14.8677 35.8594 14.9552 36.0427 14.8833 36.1594ZM15.95 37.1188C15.7281 37.0917 15.5635 36.9531 15.5823 36.8094C15.6 36.6656 15.7948 36.5719 16.0156 36.599C16.2375 36.626 16.4021 36.7646 16.3833 36.9083C16.3656 37.051 16.1719 37.1458 15.95 37.1188ZM17.6698 37.3677C17.4333 37.3542 17.249 37.2188 17.2583 37.0667C17.2677 36.9146 17.4667 36.801 17.7031 36.8146C17.9396 36.8281 18.124 36.9635 18.1146 37.1156C18.1052 37.2688 17.9063 37.3813 17.6698 37.3677ZM19.2927 37.2052C19.0406 37.2052 18.8365 37.074 18.8365 36.9125C18.8365 36.751 19.0406 36.6198 19.2927 36.6198C19.5448 36.6198 19.749 36.751 19.749 36.9125C19.749 37.074 19.5438 37.2052 19.2927 37.2052Z" fill="white"/>
</g>
<defs>
<clipPath id="clip0_2_51">
<rect width="50" height="48" fill="white"/>
</clipPath>
</defs>
</svg>
